<svg width="40" height="50" viewBox="0 0 40 50" fill="none" xmlns="http://www.w3.org/2000/svg">
<path d="M20.0002 26.93L18.9477 34.2985M15.8775 25.7019L14.8251 33.0704M24.4741 25.7019L23.4216 33.0704M14.0354 19.6058C14.954 19.7385 15.8049 20.1651 16.4609 20.8216M11.5793 27.743C10.6143 27.2846 9.85466 26.4832 9.44841 25.4952C9.04215 24.5071 9.0184 23.4032 9.38179 22.3985C9.74518 21.3939 10.4697 20.5606 11.414 20.0611C12.3584 19.5616 13.4549 19.4317 14.4898 19.6966C15.0132 18.4194 15.9514 17.3556 17.1534 16.6768C18.3553 15.998 19.7508 15.7439 21.1148 15.9553C22.4789 16.1667 23.732 16.8313 24.6721 17.8421C25.6121 18.8528 26.1844 20.1507 26.2966 21.5265C26.8049 21.6671 27.2732 21.9248 27.6641 22.279C28.0549 22.6332 28.3573 23.0739 28.5471 23.566C28.7369 24.0581 28.8089 24.5878 28.7571 25.1127C28.7054 25.6376 28.5314 26.1431 28.2492 26.5886" stroke="white" stroke-width="2" stroke-linecap="round" stroke-linejoin="round"/>
<path d="M35.536 8.60253C35.5093 8.4745 35.4575 8.35299 35.3838 8.24499C35.31 8.13698 35.2157 8.04459 35.1061 7.9731C34.9966 7.90162 34.874 7.85246 34.7455 7.82842C34.6169 7.80439 34.4849 7.80596 34.3569 7.83305C31.9282 8.34671 29.4198 8.35513 26.9878 7.85777C24.5557 7.36041 22.252 6.36791 20.22 4.94203C20.0527 4.82482 19.8535 4.76194 19.6493 4.76194C19.4451 4.76194 19.2459 4.82482 19.0787 4.94203C17.0466 6.36791 14.7429 7.36041 12.3108 7.85777C9.87878 8.35513 7.37038 8.34671 4.9417 7.83305C4.79674 7.80178 4.64661 7.80347 4.50239 7.83799C4.35817 7.87252 4.22355 7.93899 4.10846 8.03251C3.99337 8.12603 3.90076 8.24421 3.83746 8.37832C3.77416 8.51242 3.74179 8.65903 3.74275 8.80732V24.7497C3.74431 27.6275 4.43005 30.4637 5.7434 33.0244C7.05675 35.5851 8.96008 37.7968 11.2964 39.4772L19.0707 45.0524C19.2395 45.1732 19.4418 45.2381 19.6493 45.2381C19.8568 45.2381 20.0592 45.1732 20.2279 45.0524L28.0022 39.4772C30.3385 37.7968 32.2419 35.5851 33.5552 33.0244C34.8686 30.4637 35.5543 27.6275 35.5559 24.7497V8.80534C35.5562 8.73723 35.5495 8.66927 35.536 8.60253ZM33.5676 24.7497C33.5666 27.3116 32.9567 29.8365 31.7883 32.1164C30.6198 34.3963 28.9262 36.3659 26.847 37.8626L19.6493 43.0204L12.4516 37.8646C10.3722 36.3676 8.67838 34.3978 7.5099 32.1175C6.34142 29.8373 5.73172 27.3119 5.73107 24.7497V9.99634C10.5865 10.7211 15.539 9.63862 19.6493 6.95421C23.761 9.63515 28.7123 10.7174 33.5676 9.99634V24.7497Z" fill="white"/>
<path d="M39.274 4.74425C39.241 4.58609 39.1771 4.436 39.086 4.30258C38.9949 4.16916 38.8783 4.05503 38.743 3.96673C38.6077 3.87843 38.4563 3.81769 38.2975 3.788C38.1387 3.75832 37.9756 3.76026 37.8175 3.79372C34.8174 4.42824 31.7188 4.43864 28.7145 3.82425C25.7101 3.20987 22.8644 1.98385 20.3542 0.22246C20.1477 0.0776725 19.9016 0 19.6493 0C19.3971 0 19.1509 0.0776725 18.9444 0.22246C16.4342 1.98385 13.5885 3.20987 10.5841 3.82425C7.57983 4.43864 4.48122 4.42824 1.48109 3.79372C1.30202 3.75509 1.11656 3.75718 0.938409 3.79982C0.760255 3.84247 0.593955 3.92459 0.451788 4.04011C0.309621 4.15564 0.195218 4.30162 0.117026 4.46728C0.0388336 4.63294 -0.00115091 4.81405 2.52135e-05 4.99724V24.6907C0.00196182 28.2457 0.849053 31.7493 2.47143 34.9124C4.0938 38.0756 6.44496 40.8078 9.33098 42.8835L18.9346 49.7706C19.143 49.9198 19.393 50 19.6493 50C19.9057 50 20.1556 49.9198 20.3641 49.7706L29.9676 42.8835C32.8537 40.8078 35.2048 38.0756 36.8272 34.9124C38.4496 31.7493 39.2967 28.2457 39.2986 24.6907V4.99478C39.299 4.91065 39.2908 4.8267 39.274 4.74425ZM36.8424 24.6907C36.8412 27.8554 36.0879 30.9745 34.6445 33.7908C33.2011 36.6072 31.109 39.0401 28.5406 40.8891L19.6493 47.2604L10.758 40.8916C8.18931 39.0423 6.09699 36.609 4.65357 33.7922C3.21015 30.9754 2.45699 27.8558 2.45619 24.6907V6.46602C8.45405 7.36132 14.5719 6.02413 19.6493 2.70809C24.7285 6.01985 30.8447 7.35668 36.8424 6.46602V24.6907Z" fill="white"/>
</svg>
